<?xml version="1.0" standalone="no"?>
<!DOCTYPE svg PUBLIC "-//W3C//DTD SVG 1.1//EN" "http://www.w3.org/Graphics/SVG/1.1/DTD/svg11.dtd" >
<svg>
<metadata>
Created by FontForge 20110222 at Fri Feb 10 11:38:08 2012
 By www-data
Modern and elegant sans serif free font.
</metadata>
<defs>
<font id="Weston-Light-Free" horiz-adv-x="811" >
  <font-face 
    font-family="Weston Light Free"
    font-weight="300"
    font-stretch="normal"
    units-per-em="1000"
    panose-1="2 0 0 0 0 0 0 0 0 0"
    ascent="750"
    descent="-250"
    x-height="696"
    cap-height="700"
    bbox="-5 -226.241 1039 923.25"
    underline-thickness="50"
    underline-position="-50"
    unicode-range="U+0020-02DC"
  />
    <missing-glyph />
    <glyph glyph-name="space" unicode=" " horiz-adv-x="359" 
 />
    <glyph glyph-name="acute" unicode="&#xb4;" horiz-adv-x="335" 
d="M119 752l70 75c31 33 75 -12 43 -43l-72 -69c-28 -27 -66 9 -41 37z" />
    <glyph glyph-name="dieresis" unicode="&#xa8;" horiz-adv-x="468" 
d="M91 694h-1c-21 0 -38 17 -38 39s17 39 38 39h1c22 0 39 -17 39 -39s-17 -39 -39 -39zM381 694h-1c-21 0 -38 17 -38 39s17 39 38 39h1c22 0 39 -17 39 -39s-17 -39 -39 -39z" />
    <glyph glyph-name="Thorn" unicode="&#xde;" horiz-adv-x="723" 
d="M148 488h-75c-15 0 -28 13 -28 29s13 28 28 28h75v98h-74c-16 0 -29 13 -29 28c0 16 13 29 29 29h206c15 0 28 -13 28 -29c0 -15 -13 -28 -28 -28h-75v-98h305c248 0 248 -377 0 -377h-305v-111h74c16 0 29 -13 29 -28c0 -16 -13 -29 -29 -29h-206c-15 0 -28 13 -28 29
c0 15 13 28 28 28h75v111h-75c-15 0 -28 13 -28 29s13 29 28 29h75v262zM205 488v-262h305c173 0 173 262 0 262h-305z" />
    <glyph glyph-name="eth" unicode="&#xf0;" horiz-adv-x="739" 
d="M151 323h-75c-16 0 -29 11 -29 27s13 28 29 28h75v261h-79c-15 0 -28 12 -28 28s13 29 28 29h297c458 0 458 -696 0 -696h-297c-15 0 -28 13 -28 29s13 29 28 29h79v265zM208 58h161c383 0 383 581 0 581h-161v-261h131c16 0 29 -12 29 -28s-13 -27 -29 -27h-131v-265z
" />
    <glyph glyph-name="thorn" unicode="&#xfe;" horiz-adv-x="723" 
d="M148 488h-75c-15 0 -28 13 -28 29s13 28 28 28h75v98h-74c-16 0 -29 13 -29 28c0 16 13 29 29 29h206c15 0 28 -13 28 -29c0 -15 -13 -28 -28 -28h-75v-98h305c248 0 248 -377 0 -377h-305v-111h74c16 0 29 -13 29 -28c0 -16 -13 -29 -29 -29h-206c-15 0 -28 13 -28 29
c0 15 13 28 28 28h75v111h-75c-15 0 -28 13 -28 29s13 29 28 29h75v262zM205 488v-262h305c173 0 173 262 0 262h-305z" />
    <glyph glyph-name="oe" unicode="&#x153;" horiz-adv-x="1019" 
d="M909 642h-365v-262h224c16 0 29 -13 29 -29s-13 -28 -29 -28h-224v-266h392v77c0 15 13 28 29 28s28 -13 28 -28v-102c0 -18 -18 -32 -34 -32h-428c-41 -15 -85 -23 -131 -23c-489 0 -488 749 0 749c48 0 94 -9 137 -26h398c17 0 31 -11 31 -29v-112
c0 -16 -13 -28 -28 -28c-16 0 -29 12 -29 28v83zM400 669c-413 0 -413 -636 0 -636c32 0 63 4 92 12v612c-29 8 -60 12 -92 12z" />
    <glyph glyph-name="exclam" unicode="!" horiz-adv-x="142" 
d="M72 -15c-20 0 -36 16 -36 36c0 19 16 35 36 35v0c20 0 36 -16 36 -35c0 -20 -16 -36 -36 -36zM44 182v495c0 15 13 28 29 28s29 -13 29 -28v-495c0 -16 -13 -29 -29 -29s-29 13 -29 29z" />
    <glyph glyph-name="comma" unicode="," horiz-adv-x="249" 
d="M56 -56l41 91c16 34 68 11 52 -23l-41 -92c-7 -14 -24 -20 -38 -14c-14 7 -21 24 -14 38z" />
    <glyph glyph-name="period" unicode="." horiz-adv-x="242" 
d="M113 -12c-23 0 -42 19 -42 42c0 22 19 41 42 41v0c23 0 42 -19 42 -41c0 -23 -19 -42 -42 -42z" />
    <glyph glyph-name="question" unicode="?" horiz-adv-x="609" 
d="M274 -15h-1c-20 0 -36 16 -36 36c0 19 16 35 36 35h1c20 0 36 -16 36 -35c0 -20 -16 -36 -36 -36zM69 517c0 -16 -13 -29 -29 -29s-29 13 -29 29c0 104 85 188 189 188h198c264 0 228 -374 8 -376c-57 0 -105 -7 -105 -73v-74c0 -16 -13 -29 -29 -29s-29 13 -29 29v74
c0 103 69 126 159 128c167 4 168 264 -4 264h-198c-73 0 -131 -59 -131 -131z" />
    <glyph glyph-name="grave" unicode="`" horiz-adv-x="197" 
d="M85 826l70 -75c25 -28 -13 -64 -41 -37l-72 69c-32 31 12 76 43 43z" />
    <glyph glyph-name="circumflex" unicode="&#x2c6;" horiz-adv-x="460" 
d="M256 881l84 -59c29 -24 -1 -60 -30 -43l-79 48l-81 -51c-32 -20 -63 21 -30 44l88 61c15 12 34 10 48 0z" />
    <glyph glyph-name="tilde" unicode="&#x2dc;" horiz-adv-x="421" 
d="M75 712c35 63 95 81 158 20c25 -23 63 -23 79 8c12 22 52 4 40 -19c-35 -60 -94 -68 -141 -27c-28 26 -68 52 -97 0c-13 -21 -50 -8 -39 18z" />
    <glyph glyph-name="cedilla" unicode="&#xb8;" horiz-adv-x="382" 
d="M165 0h53l-12 -45c69 0 112 -48 98 -106c-14 -53 -60 -78 -121 -75c-46 2 -88 24 -109 68c-12 24 24 46 40 21c15 -26 42 -40 76 -40c26 0 56 8 63 38c8 36 -37 65 -89 51l-20 21z" />
    <glyph glyph-name="ae" unicode="&#xe6;" horiz-adv-x="1066" 
d="M955 642h-344v-301h203c16 0 29 -14 29 -30s-13 -27 -29 -27h-203v-227h371v77c0 15 13 28 29 28s28 -13 28 -28v-102c0 -18 -18 -32 -34 -32h-526c-15 0 -28 12 -28 28s13 29 28 29h75v227h-254l-145 -226h62c15 0 28 -13 28 -29s-13 -29 -28 -29h-193
c-16 0 -29 13 -29 29s13 29 29 29h68l145 226h-44c-16 0 -29 12 -29 29c0 15 13 28 29 28h79l192 303h-50c-16 0 -29 13 -29 28c0 16 13 29 29 29l567 -1c17 0 31 -11 31 -29v-112c0 -16 -13 -28 -28 -28c-16 0 -29 12 -29 28v83zM336 341h218v301h-21z" />
    <glyph glyph-name="B" unicode="B" horiz-adv-x="748" 
d="M148 640h-74c-16 0 -29 13 -29 28c0 16 13 29 29 29h430c104 0 188 -84 188 -188c0 -60 -28 -116 -76 -151c64 -32 105 -97 105 -169c0 -52 -21 -99 -56 -133c-34 -34 -81 -56 -133 -56h-355h-103c-16 0 -29 13 -29 29s13 29 29 29h74v262h-74c-16 0 -29 13 -29 29
s13 28 29 28h74v263zM206 320v-262h326c36 0 69 14 93 38s38 57 38 93c0 72 -58 131 -131 131h-28h-298zM206 640v-263h298c72 0 131 59 131 132c0 72 -59 131 -131 131h-298z" />
    <glyph glyph-name="A" unicode="A" 
d="M679 292c16 0 29 -13 29 -28c0 -17 -13 -30 -29 -30h-44l79 -176h68c16 0 29 -13 29 -29s-13 -29 -29 -29h-192c-16 0 -29 13 -29 29s13 29 29 29h61l-79 176h-333l-79 -176h62c15 0 28 -13 28 -29s-13 -29 -28 -29h-193c-16 0 -29 13 -29 29s13 29 29 29h68l79 176h-44
c-16 0 -29 13 -29 30c0 15 13 28 29 28h70l158 352h-50c-16 0 -29 13 -29 28c0 16 13 29 29 29h191c16 0 29 -13 29 -29c0 -15 -13 -28 -29 -28h-50l158 -352h70v0zM405 606l-140 -314h281z" />
    <glyph glyph-name="C" unicode="C" horiz-adv-x="686" 
d="M361 58h271c15 0 28 -13 28 -29s-13 -29 -28 -29h-271c-457 0 -457 696 0 696h271c15 0 28 -13 28 -29v-111c0 -16 -13 -29 -28 -29c-16 0 -29 13 -29 29v83h-242c-382 0 -382 -581 0 -581z" />
    <glyph glyph-name="D" unicode="D" horiz-adv-x="739" 
d="M151 639h-79c-15 0 -28 12 -28 28s13 29 28 29h297c458 0 458 -696 0 -696h-297c-15 0 -28 13 -28 29s13 29 28 29h79v581zM208 58h161c383 0 383 581 0 581h-161v-581z" />
    <glyph glyph-name="E" unicode="E" horiz-adv-x="724" 
d="M614 642h-409v-262h268c16 0 29 -13 29 -29s-13 -28 -29 -28h-268v-266h436v77c0 15 13 28 29 28s28 -13 28 -28v-102c0 -18 -18 -32 -34 -32h-591c-15 0 -28 12 -28 28s13 29 28 29h75v266h-75c-15 0 -28 12 -28 28s13 29 28 29h75v262h-75c-15 0 -28 13 -28 29
s13 29 28 29h567c17 0 31 -11 31 -29v-112c0 -16 -13 -28 -28 -28c-16 0 -29 12 -29 28v83z" />
    <glyph glyph-name="F" unicode="F" horiz-adv-x="710" 
d="M206 57h74c15 0 28 -13 28 -28c0 -16 -13 -29 -28 -29h-206c-16 0 -29 13 -29 29c0 15 13 28 29 28h74v269h-74c-16 0 -29 13 -29 29s13 28 29 28h74v263h-74c-16 0 -29 13 -29 28c0 16 13 29 29 29h588c20 0 31 -14 31 -33v-107c0 -16 -13 -29 -28 -29
c-16 0 -29 13 -29 29v83h-430v-263h268c16 0 29 -12 29 -28s-13 -29 -29 -29h-268v-269z" />
    <glyph glyph-name="G" unicode="G" horiz-adv-x="693" 
d="M672 667v-112c0 -15 -13 -28 -29 -28s-28 13 -28 28v83h-243c-80 0 -153 -32 -205 -85c-53 -53 -85 -125 -85 -205c0 -81 32 -153 85 -206c52 -52 125 -85 205 -85h243v225h-176c-15 0 -28 13 -28 29s13 29 28 29h204c16 0 29 -13 29 -29v-283c0 -15 -13 -28 -29 -28
h-271c-96 0 -183 39 -246 102s-101 150 -101 246s38 183 101 245c63 63 150 102 246 102h271c16 0 29 -12 29 -28z" />
    <glyph glyph-name="H" unicode="H" horiz-adv-x="826" 
d="M279 642h-74v-262h408v262h-75c-16 0 -28 13 -28 29s12 29 28 29h206c16 0 29 -13 29 -29s-13 -29 -29 -29h-74v-262h75c16 0 29 -13 29 -29s-13 -28 -29 -28h-75v-266h81c16 0 29 -13 29 -29s-13 -28 -29 -28h-206c-15 0 -28 12 -28 28s13 29 28 29h68v266h-408v-266h74
c16 0 29 -13 29 -29s-13 -28 -29 -28h-205c-16 0 -29 12 -29 28s13 29 29 29h74v266h-74c-16 0 -29 12 -29 28s13 29 29 29h74v262h-74c-16 0 -29 13 -29 29s13 29 29 29h205c16 0 29 -13 29 -29s-13 -29 -29 -29z" />
    <glyph glyph-name="I" unicode="I" horiz-adv-x="289" 
d="M247 642h-74v-585h74c16 0 29 -13 29 -29s-13 -28 -29 -28h-206c-16 0 -29 12 -29 28s13 29 29 29h74v585h-74c-16 0 -29 13 -29 29s13 29 29 29h206c16 0 29 -13 29 -29s-13 -29 -29 -29z" />
    <glyph glyph-name="J" unicode="J" horiz-adv-x="584" 
d="M8 259c0 16 13 29 28 29c16 0 29 -13 29 -29c0 -276 419 -276 419 0v383h-156c-16 0 -28 13 -28 29s12 29 28 29h185c15 0 28 -13 28 -29v-412c0 -351 -533 -351 -533 0z" />
    <glyph glyph-name="K" unicode="K" horiz-adv-x="808" 
d="M580 57h54l-299 266h-131v-266h74c16 0 29 -13 29 -29c0 -15 -13 -28 -29 -28h-206c-15 0 -28 13 -28 28c0 16 13 29 28 29h75v266h-75c-15 0 -28 13 -28 29s13 29 28 29h75v262h-75c-15 0 -28 12 -28 28s13 29 28 29h206c16 0 29 -13 29 -29s-13 -28 -29 -28h-74v-262
h137l231 262h-85c-16 0 -29 12 -29 28s13 29 29 29h206c16 0 28 -13 28 -29s-12 -28 -28 -28h-45l-257 -293l329 -293h66c16 0 28 -13 28 -29c0 -15 -12 -28 -28 -28h-206c-16 0 -29 13 -29 28c0 16 13 29 29 29z" />
    <glyph glyph-name="L" unicode="L" horiz-adv-x="710" 
d="M279 644h-74v-587h432v81c0 16 13 29 28 29c16 0 29 -13 29 -29v-110c0 -15 -13 -28 -29 -28h-592c-15 0 -28 13 -28 28c0 16 13 29 28 29h75v587h-75c-15 0 -28 12 -28 28s13 29 28 29h206c16 0 29 -13 29 -29s-13 -28 -29 -28z" />
    <glyph glyph-name="M" unicode="M" horiz-adv-x="879" 
d="M191 682l263 -317l235 315c8 10 14 15 27 15h95c15 0 28 -13 28 -28c0 -16 -13 -29 -28 -29h-68v-581h68c15 0 28 -13 28 -29s-13 -28 -28 -28h-188c-16 0 -29 12 -29 28s13 29 29 29h63v524l-207 -278c-6 -8 -15 -12 -24 -11c-8 0 -17 3 -22 10l-237 286v-531h64
c16 0 29 -13 29 -29s-13 -28 -29 -28h-186c-16 0 -29 12 -29 28s13 29 29 29h64v581h-64c-16 0 -29 13 -29 29c0 15 13 28 29 28h90c14 0 19 -3 27 -13z" />
    <glyph glyph-name="N" unicode="N" horiz-adv-x="856" 
d="M199 685l460 -572v530h-70c-16 0 -29 13 -29 29s13 28 29 28h197c16 0 29 -12 29 -28s-13 -29 -29 -29h-70v-611c0 -28 -36 -39 -52 -16l-463 575v-533h70c16 0 29 -13 29 -29s-13 -29 -29 -29h-198c-15 0 -28 13 -28 29s13 29 28 29h71v585h-71c-15 0 -28 13 -28 29
s13 28 28 28h97c15 0 20 -4 29 -15z" />
    <glyph glyph-name="O" unicode="O" horiz-adv-x="805" 
d="M781 351c0 -105 -43 -200 -112 -269s-164 -112 -269 -112s-201 43 -270 112s-111 164 -111 269c0 106 42 201 111 270s165 112 270 112s200 -43 269 -112s112 -164 112 -270zM629 122c59 59 95 140 95 229c0 90 -36 171 -95 229c-59 59 -140 95 -229 95
c-90 0 -171 -36 -229 -95c-59 -58 -95 -139 -95 -229c0 -89 36 -170 95 -229c58 -58 139 -95 229 -95c89 0 170 37 229 95z" />
    <glyph glyph-name="P" unicode="P" horiz-adv-x="718" 
d="M148 645h-75c-15 0 -28 13 -28 29s13 28 28 28h437c248 0 248 -377 0 -377h-305v-268h74c16 0 29 -13 29 -28c0 -16 -13 -29 -29 -29h-206c-15 0 -28 13 -28 29c0 15 13 28 28 28h75v268h-75c-15 0 -28 13 -28 29s13 29 28 29h75v262zM205 645v-262h305
c173 0 173 262 0 262h-305z" />
    <glyph glyph-name="Q" unicode="Q" horiz-adv-x="806" 
d="M678 85l56 -56c11 -11 11 -29 0 -40s-29 -11 -41 0l-58 58c-64 -48 -144 -77 -231 -77c-105 0 -200 43 -269 112s-112 164 -112 269c0 106 43 201 112 270s164 112 269 112c106 0 201 -43 270 -112s112 -164 112 -270c0 -103 -42 -197 -108 -266zM594 88l-75 75
c-11 11 -11 29 0 41c11 11 29 11 40 0l78 -78c57 58 91 138 91 225c0 90 -36 171 -94 229c-59 59 -140 95 -230 95c-89 0 -170 -36 -229 -95c-58 -58 -95 -139 -95 -229c0 -89 37 -170 95 -229c59 -58 140 -95 229 -95c71 0 136 23 190 61z" />
    <glyph glyph-name="R" unicode="R" horiz-adv-x="797" 
d="M148 643h-74c-16 0 -29 13 -29 29s13 28 29 28h437c248 0 248 -375 0 -375h-33l190 -267h77c15 0 28 -13 28 -29s-13 -29 -28 -29h-206c-16 0 -29 13 -29 29s13 29 29 29h59l-190 267h-203v-268h75c16 0 28 -13 28 -28c0 -16 -12 -29 -28 -29h-206c-16 0 -29 13 -29 29
c0 15 13 28 29 28h74v268h-74c-16 0 -29 13 -29 29s13 29 29 29h74v260zM205 643v-260h306c172 0 172 260 0 260h-306z" />
    <glyph glyph-name="S" unicode="S" horiz-adv-x="782" 
d="M235 378h332c247 0 249 -378 0 -378h-339c-104 0 -195 65 -195 176c0 16 13 28 28 28c16 0 29 -12 29 -28c0 -79 66 -119 138 -119h339c174 0 172 264 0 264h-332c-246 0 -249 379 0 379h269c48 0 99 -14 132 -50v31c0 37 57 37 57 0v-148c0 -16 -13 -29 -29 -29
c-15 0 -28 13 -28 29c0 34 -13 60 -34 78c-24 21 -59 32 -98 32h-269c-173 0 -171 -265 0 -265z" />
    <glyph glyph-name="T" unicode="T" horiz-adv-x="678" 
d="M665 671v-113c0 -16 -13 -29 -29 -29s-29 13 -29 29v85h-242v-586h74c16 0 28 -13 28 -28c0 -16 -12 -29 -28 -29h-206c-16 0 -29 13 -29 29c0 15 13 28 29 28h74v586h-243v-85c0 -16 -12 -29 -28 -29s-29 13 -29 29v113c0 16 13 29 29 29h600c16 0 29 -13 29 -29z" />
    <glyph glyph-name="U" unicode="U" horiz-adv-x="865" 
d="M77 702h206c16 0 28 -13 28 -28c0 -16 -12 -29 -28 -29h-78v-457c0 -72 59 -131 132 -131h188c73 0 132 59 132 131v457h-70c-16 0 -29 13 -29 29c0 15 13 28 29 28h206c16 0 28 -13 28 -28c0 -16 -12 -29 -28 -29h-79v-457c0 -104 -85 -188 -189 -188h-188
c-105 0 -189 84 -189 188v457h-71c-16 0 -29 13 -29 29c0 15 13 28 29 28z" />
    <glyph glyph-name="V" unicode="V" horiz-adv-x="807" 
d="M774 642h-61l-277 -638c-10 -24 -44 -24 -55 -1l-294 639h-56c-16 0 -29 14 -29 29c0 17 13 30 29 30h172c16 0 28 -13 28 -30c0 -15 -12 -29 -28 -29h-53l258 -560l242 560h-48c-15 0 -28 14 -28 29c0 17 13 30 28 30h172c16 0 29 -13 29 -30c0 -15 -13 -29 -29 -29z
" />
    <glyph glyph-name="W" unicode="W" horiz-adv-x="1003" 
d="M31 700h188c15 0 28 -13 28 -30c0 -15 -13 -28 -28 -28h-56l155 -523l160 547c9 32 47 32 56 0l159 -545l150 521h-64c-15 0 -28 13 -28 28c0 17 13 30 28 30h188c16 0 29 -13 29 -30c0 -15 -13 -28 -29 -28h-63l-183 -630c-8 -31 -47 -31 -55 0l-160 546l-160 -548
c-8 -29 -48 -27 -55 2l-189 630h-71c-16 0 -29 13 -29 28c0 17 13 30 29 30z" />
    <glyph glyph-name="X" unicode="X" horiz-adv-x="710" 
d="M610 57h64c16 0 29 -13 29 -29s-13 -28 -29 -28h-78c-10 0 -19 5 -24 13l-216 291l-188 -247h67c16 0 28 -13 28 -29s-12 -28 -28 -28h-201c-16 0 -29 12 -29 28s13 29 29 29h62l224 295l-213 288h-69c-16 0 -28 12 -28 28s12 29 28 29h82c9 0 18 -4 24 -12l212 -286
l182 241h-63c-15 0 -28 12 -28 28s13 29 28 29h202c15 0 28 -13 28 -29s-13 -28 -28 -28h-67l-218 -288z" />
    <glyph glyph-name="Y" unicode="Y" horiz-adv-x="724" 
d="M333 59v257l-266 322h-39c-16 0 -29 13 -29 29s13 28 29 28h168c16 0 29 -12 29 -28s-13 -29 -29 -29h-55l219 -265l213 265h-48c-16 0 -29 13 -29 29s13 28 29 28h168c16 0 29 -12 29 -28s-13 -29 -29 -29h-46l-258 -319l1 -260h58c16 0 29 -12 29 -28s-13 -29 -29 -29
h-168c-16 0 -28 13 -28 29s12 28 28 28h53z" />
    <glyph glyph-name="Z" unicode="Z" horiz-adv-x="706" 
d="M674 645l-270 -283h87c16 0 28 -13 28 -28c0 -16 -12 -30 -28 -30h-143l-237 -246h524v79c0 39 57 39 57 0v-108c0 -16 -12 -29 -28 -29h-620c-16 0 -29 13 -29 29c0 9 4 17 10 22l244 253h-110c-16 0 -28 14 -28 30c0 15 12 28 28 28h165l265 276h-488v-86
c0 -16 -12 -29 -28 -29s-28 13 -28 29v115c0 16 12 29 28 29h583c26 0 38 -33 18 -51z" />
    <glyph glyph-name="zero" unicode="0" horiz-adv-x="714" 
d="M667 516v-326c0 -107 -80 -193 -188 -193h-241c-104 0 -188 84 -188 188v331c0 104 84 188 188 188h241c104 0 188 -84 188 -188zM610 190v326c0 72 -59 131 -131 131h-241c-72 0 -131 -59 -131 -131v-331c0 -72 58 -131 131 -131h241c76 0 131 61 131 136z" />
    <glyph glyph-name="one" unicode="1" horiz-adv-x="307" 
d="M128 698c16 0 28 -13 28 -29v-611h75c16 0 28 -13 28 -29s-12 -29 -28 -29h-206c-16 0 -29 13 -29 29s13 29 29 29h74v583h-4h-70c-16 0 -29 12 -29 28s13 29 29 29h103z" />
    <glyph glyph-name="two" unicode="2" horiz-adv-x="687" 
d="M41 503v171c0 16 13 29 29 29s28 -13 28 -29v-45c37 46 72 65 131 65h250c239 0 274 -427 -33 -427h-278c-73 0 -92 1 -92 -93v-116h528v54c0 16 13 29 29 29s28 -13 28 -29v-83c0 -16 -12 -29 -28 -29h-585c-16 0 -29 13 -29 29c0 39 -1 68 0 144c0 124 29 152 149 152
h278c231 0 196 310 33 310h-250c-36 0 -68 -14 -92 -38s-39 -57 -39 -94c0 -16 -12 -28 -28 -28s-29 12 -29 28z" />
    <glyph glyph-name="three" unicode="3" horiz-adv-x="705" 
d="M502 320h-229c-16 0 -29 13 -29 29s13 28 29 28h200c37 0 69 15 93 39s39 56 39 93c0 36 -15 69 -39 92c-24 24 -56 39 -93 39h-379v-84c0 -16 -13 -28 -29 -28s-28 12 -28 28v113c0 15 12 28 28 28h408c52 0 99 -21 134 -55c34 -34 55 -81 55 -133s-21 -99 -55 -134
c-7 -6 -14 -12 -21 -17c18 -10 35 -22 49 -36c34 -34 55 -81 55 -133s-21 -99 -55 -133s-81 -56 -133 -56h-313c-78 0 -147 51 -172 124c-5 15 2 31 17 36s31 -2 37 -17c17 -50 64 -86 118 -85h313c36 0 69 14 93 38c23 24 38 57 38 93s-15 69 -38 93c-24 24 -57 38 -93 38z
" />
    <glyph glyph-name="four" unicode="4" horiz-adv-x="673" 
d="M629 643h-75v-378h75c16 0 28 -12 28 -28s-12 -29 -28 -29h-75v-151h75c16 0 28 -13 28 -29s-12 -28 -28 -28h-206c-16 0 -29 12 -29 28s13 29 29 29h74v151h-457c-19 0 -33 16 -29 35l94 400h-68c-16 0 -29 13 -29 29s13 29 29 29h100c26 0 34 -25 29 -47l-91 -389h422
v378h-74c-16 0 -29 13 -29 29s13 29 29 29h206c16 0 28 -13 28 -29s-12 -29 -28 -29z" />
    <glyph glyph-name="five" unicode="5" horiz-adv-x="700" 
d="M108 377h218h165c52 0 99 -21 133 -56c34 -34 55 -81 55 -133s-21 -99 -55 -133s-81 -55 -133 -55h-301h-1c-127 0 -169 123 -169 123c-5 15 3 31 18 37c15 5 31 -3 36 -18c0 0 29 -85 116 -85h301c36 0 69 15 93 38c24 24 38 57 38 93s-14 69 -38 93s-57 38 -93 38h-165
h-247c-16 0 -28 13 -28 29v159v160c0 15 12 28 28 28h518c16 0 29 -13 29 -28v-113c0 -16 -13 -28 -29 -28s-28 12 -28 28v84h-461v-131v-130z" />
    <glyph glyph-name="six" unicode="6" horiz-adv-x="683" 
d="M85 56c-38 33 -63 80 -63 131v320c-1 107 80 193 188 193h264c48 0 95 -19 130 -52c27 -26 -12 -67 -39 -42c-25 24 -57 37 -91 37h-264c-76 0 -132 -61 -132 -135l1 -202c35 46 95 71 150 71h248c247 0 249 -378 0 -378h-248c-53 0 -105 21 -144 57zM229 56h248
c174 0 172 264 0 264h-248c-38 0 -77 -16 -106 -42c-58 -53 -59 -128 0 -180c29 -26 68 -42 106 -42z" />
    <glyph glyph-name="seven" unicode="7" horiz-adv-x="657" 
d="M633 648l-241 -291h111c16 0 29 -13 29 -28c0 -17 -13 -30 -29 -30h-159l-239 -290c-10 -12 -28 -13 -40 -3s-14 29 -4 41l209 252h-99c-16 0 -29 13 -29 30c0 15 13 28 29 28h147l233 282h-484v-87c0 -17 -13 -29 -29 -29s-29 12 -29 29v116c0 17 13 30 29 30h575
c25 0 38 -32 20 -50z" />
    <glyph glyph-name="eight" unicode="8" horiz-adv-x="684" 
d="M261 378h154c36 0 69 15 93 39s39 58 39 94c0 73 -59 131 -132 131h-154c-73 0 -132 -58 -132 -131c0 -36 15 -70 39 -94s56 -39 93 -39zM539 368c27 -10 52 -25 72 -46c34 -34 55 -82 55 -134c0 -110 -87 -188 -195 -188h-267c-104 0 -189 84 -189 188
c0 52 21 100 56 134c19 20 42 35 68 44c-4 4 -8 7 -11 11c-35 35 -56 82 -56 134c0 104 85 189 189 189h154c104 0 189 -85 189 -189c0 -52 -21 -99 -56 -134zM609 188c0 37 -15 70 -38 94c-24 24 -57 39 -93 39h-274c-36 0 -69 -15 -93 -39s-39 -57 -39 -94
c0 -72 59 -131 132 -131h267c77 0 138 53 138 131z" />
    <glyph glyph-name="nine" unicode="9" horiz-adv-x="677" 
d="M598 644c37 -34 63 -80 63 -132v-319c0 -107 -81 -192 -188 -192c-89 0 -177 -1 -265 -1c-48 0 -95 19 -130 52c-27 26 13 67 40 41c24 -23 56 -36 90 -36c88 0 176 1 265 1c75 0 131 60 131 135v201c-36 -46 -95 -72 -151 -72h-248c-246 0 -249 379 0 379h248
c53 0 105 -22 145 -57zM453 643h-248c-174 0 -171 -264 0 -264h248c39 0 77 17 106 43c58 52 59 127 1 180c-29 25 -68 41 -107 41z" />
    <glyph glyph-name="zcaron" unicode="&#x17e;" horiz-adv-x="690" 
d="M340 755l-80 56c-27 23 1 57 28 41l75 -46l77 49c30 18 60 -20 29 -42l-84 -58c-14 -12 -32 -10 -45 0zM663 645l-270 -283h87c16 0 28 -13 28 -28c0 -16 -12 -30 -28 -30h-143l-237 -246h524v79c0 39 57 39 57 0v-108c0 -16 -12 -29 -28 -29h-620c-16 0 -29 13 -29 29
c0 9 4 17 10 22l244 253h-110c-16 0 -28 14 -28 30c0 15 12 28 28 28h165l265 276h-488v-86c0 -16 -12 -29 -28 -29s-28 13 -28 29v115c0 16 12 29 28 29h583c26 0 38 -33 18 -51z" />
    <glyph glyph-name="Scaron" unicode="&#x160;" horiz-adv-x="779" 
d="M235 378h332c247 0 249 -378 0 -378h-339c-104 0 -195 65 -195 176c0 16 13 28 28 28c16 0 29 -12 29 -28c0 -79 66 -119 138 -119h339c174 0 172 264 0 264h-332c-246 0 -249 379 0 379h269c48 0 99 -14 132 -50v31c0 37 57 37 57 0v-148c0 -16 -13 -29 -29 -29
c-15 0 -28 13 -28 29c0 34 -13 60 -34 78c-24 21 -59 32 -98 32h-269c-173 0 -171 -265 0 -265zM371 757l-84 59c-29 24 1 60 30 43l79 -48l81 51c32 20 63 -21 30 -44l-88 -61c-15 -12 -34 -10 -48 0z" />
    <glyph glyph-name="scaron" unicode="&#x161;" horiz-adv-x="780" 
d="M229 378h332c247 0 249 -378 0 -378h-339c-104 0 -195 65 -195 176c0 16 13 28 28 28c16 0 29 -12 29 -28c0 -79 66 -119 138 -119h339c174 0 172 264 0 264h-332c-246 0 -249 379 0 379h269c48 0 99 -14 132 -50v31c0 37 57 37 57 0v-148c0 -16 -13 -29 -29 -29
c-15 0 -28 13 -28 29c0 34 -13 60 -34 78c-24 21 -59 32 -98 32h-269c-173 0 -171 -265 0 -265zM369 753l-84 59c-29 24 1 60 30 43l79 -48l81 51c32 20 63 -21 30 -44l-88 -61c-15 -12 -34 -10 -48 0z" />
    <glyph glyph-name="Ydieresis" unicode="&#x178;" horiz-adv-x="776" 
d="M333 59v257l-266 322h-39c-16 0 -29 13 -29 29s13 28 29 28h168c16 0 29 -12 29 -28s-13 -29 -29 -29h-55l219 -265l213 265h-48c-16 0 -29 13 -29 29s13 28 29 28h168c16 0 29 -12 29 -28s-13 -29 -29 -29h-46l-258 -319l1 -260h58c16 0 29 -12 29 -28s-13 -29 -29 -29
h-168c-16 0 -28 13 -28 29s12 28 28 28h53zM222 745h-1c-21 0 -38 17 -38 39s17 39 38 39h1c22 0 39 -17 39 -39s-17 -39 -39 -39zM512 745h-1c-21 0 -38 17 -38 39s17 39 38 39h1c22 0 39 -17 39 -39s-17 -39 -39 -39z" />
    <glyph glyph-name="a" unicode="a" horiz-adv-x="817" 
d="M680 292c16 0 29 -13 29 -28c0 -17 -13 -30 -29 -30h-44l79 -176h68c16 0 29 -13 29 -29s-13 -29 -29 -29h-192c-16 0 -29 13 -29 29s13 29 29 29h61l-79 176h-333l-79 -176h62c15 0 28 -13 28 -29s-13 -29 -28 -29h-193c-16 0 -29 13 -29 29s13 29 29 29h68l79 176h-44
c-16 0 -29 13 -29 30c0 15 13 28 29 28h70l158 352h-50c-16 0 -29 13 -29 28c0 16 13 29 29 29h191c16 0 29 -13 29 -29c0 -15 -13 -28 -29 -28h-50l158 -352h70v0zM406 606l-140 -314h281z" />
    <glyph glyph-name="b" unicode="b" horiz-adv-x="745" 
d="M148 640h-74c-16 0 -29 13 -29 28c0 16 13 29 29 29h430c104 0 188 -84 188 -188c0 -60 -28 -116 -76 -151c64 -32 105 -97 105 -169c0 -52 -21 -99 -56 -133c-34 -34 -81 -56 -133 -56h-355h-103c-16 0 -29 13 -29 29s13 29 29 29h74v262h-74c-16 0 -29 13 -29 29
s13 28 29 28h74v263zM206 320v-262h326c36 0 69 14 93 38s38 57 38 93c0 72 -58 131 -131 131h-28h-298zM206 640v-263h298c72 0 131 59 131 132c0 72 -59 131 -131 131h-298z" />
    <glyph glyph-name="c" unicode="c" horiz-adv-x="686" 
d="M361 58h271c15 0 28 -13 28 -29s-13 -29 -28 -29h-271c-457 0 -457 696 0 696h271c15 0 28 -13 28 -29v-111c0 -16 -13 -29 -28 -29c-16 0 -29 13 -29 29v83h-242c-382 0 -382 -581 0 -581z" />
    <glyph glyph-name="d" unicode="d" horiz-adv-x="740" 
d="M151 639h-79c-15 0 -28 12 -28 28s13 29 28 29h297c458 0 458 -696 0 -696h-297c-15 0 -28 13 -28 29s13 29 28 29h79v581zM208 58h161c383 0 383 581 0 581h-161v-581z" />
    <glyph glyph-name="e" unicode="e" horiz-adv-x="725" 
d="M614 642h-409v-262h268c16 0 29 -13 29 -29s-13 -28 -29 -28h-268v-266h436v77c0 15 13 28 29 28s28 -13 28 -28v-102c0 -18 -18 -32 -34 -32h-591c-15 0 -28 12 -28 28s13 29 28 29h75v266h-75c-15 0 -28 12 -28 28s13 29 28 29h75v262h-75c-15 0 -28 13 -28 29
s13 29 28 29h567c17 0 31 -11 31 -29v-112c0 -16 -13 -28 -28 -28c-16 0 -29 12 -29 28v83z" />
    <glyph glyph-name="f" unicode="f" horiz-adv-x="711" 
d="M206 57h74c15 0 28 -13 28 -28c0 -16 -13 -29 -28 -29h-206c-16 0 -29 13 -29 29c0 15 13 28 29 28h74v269h-74c-16 0 -29 13 -29 29s13 28 29 28h74v263h-74c-16 0 -29 13 -29 28c0 16 13 29 29 29h588c20 0 31 -14 31 -33v-107c0 -16 -13 -29 -28 -29
c-16 0 -29 13 -29 29v83h-430v-263h268c16 0 29 -12 29 -28s-13 -29 -29 -29h-268v-269z" />
    <glyph glyph-name="g" unicode="g" horiz-adv-x="692" 
d="M673 672v-113c0 -15 -13 -28 -29 -28s-28 13 -28 28v84h-243c-80 0 -153 -33 -205 -86c-53 -53 -85 -126 -85 -207s32 -154 85 -207c52 -52 125 -86 205 -86h243v227h-176c-15 0 -28 13 -28 29s13 29 28 29h204c16 0 29 -13 29 -29v-285c0 -15 -13 -28 -29 -28h-271
c-96 0 -183 39 -246 103c-63 63 -101 151 -101 247c0 97 38 185 101 247c63 64 150 103 246 103h271c16 0 29 -12 29 -28z" />
    <glyph glyph-name="h" unicode="h" horiz-adv-x="827" 
d="M279 642h-74v-262h408v262h-75c-16 0 -28 13 -28 29s12 29 28 29h206c16 0 29 -13 29 -29s-13 -29 -29 -29h-74v-262h75c16 0 29 -13 29 -29s-13 -28 -29 -28h-75v-266h81c16 0 29 -13 29 -29s-13 -28 -29 -28h-206c-15 0 -28 12 -28 28s13 29 28 29h68v266h-408v-266h74
c16 0 29 -13 29 -29s-13 -28 -29 -28h-205c-16 0 -29 12 -29 28s13 29 29 29h74v266h-74c-16 0 -29 12 -29 28s13 29 29 29h74v262h-74c-16 0 -29 13 -29 29s13 29 29 29h205c16 0 29 -13 29 -29s-13 -29 -29 -29z" />
    <glyph glyph-name="i" unicode="i" horiz-adv-x="309" 
d="M257 642h-74v-585h74c16 0 29 -13 29 -29s-13 -28 -29 -28h-206c-16 0 -29 12 -29 28s13 29 29 29h74v585h-74c-16 0 -29 13 -29 29s13 29 29 29h206c16 0 29 -13 29 -29s-13 -29 -29 -29z" />
    <glyph glyph-name="j" unicode="j" horiz-adv-x="580" 
d="M5 259c0 16 13 29 28 29c16 0 29 -13 29 -29c0 -276 419 -276 419 0v383h-156c-16 0 -28 13 -28 29s12 29 28 29h185c15 0 28 -13 28 -29v-412c0 -351 -533 -351 -533 0z" />
    <glyph glyph-name="k" unicode="k" horiz-adv-x="806" 
d="M581 57h54l-299 266h-131v-266h74c16 0 29 -13 29 -29c0 -15 -13 -28 -29 -28h-206c-15 0 -28 13 -28 28c0 16 13 29 28 29h75v266h-75c-15 0 -28 13 -28 29s13 29 28 29h75v263h-75c-15 0 -28 12 -28 28s13 29 28 29h206c16 0 29 -13 29 -29s-13 -28 -29 -28h-74v-263
h137l231 263h-85c-16 0 -29 12 -29 28s13 29 29 29h206c16 0 28 -13 28 -29s-12 -28 -28 -28h-45l-257 -294l329 -293h66c16 0 28 -13 28 -29c0 -15 -12 -28 -28 -28h-206c-16 0 -29 13 -29 28c0 16 13 29 29 29z" />
    <glyph glyph-name="l" unicode="l" horiz-adv-x="711" 
d="M279 644h-74v-587h432v81c0 16 13 29 28 29c16 0 29 -13 29 -29v-110c0 -15 -13 -28 -29 -28h-592c-15 0 -28 13 -28 28c0 16 13 29 28 29h75v587h-75c-15 0 -28 12 -28 28s13 29 28 29h206c16 0 29 -13 29 -29s-13 -28 -29 -28z" />
    <glyph glyph-name="m" unicode="m" horiz-adv-x="882" 
d="M192 690l264 -321l236 319c8 10 14 15 27 15h95c15 0 28 -13 28 -28c0 -17 -13 -30 -28 -30h-68v-587h68c15 0 28 -13 28 -30c0 -16 -13 -28 -28 -28h-189c-16 0 -29 12 -29 28c0 17 13 30 29 30h64v530l-208 -282c-6 -8 -15 -12 -24 -11c-8 0 -17 3 -22 10l-238 290
v-537h65c16 0 29 -13 29 -30c0 -16 -13 -28 -29 -28h-187c-16 0 -29 12 -29 28c0 17 13 30 29 30h64v587h-64c-16 0 -29 13 -29 30c0 15 13 28 29 28h90c14 0 19 -3 27 -13z" />
    <glyph glyph-name="n" unicode="n" horiz-adv-x="857" 
d="M199 685l460 -572v530h-70c-16 0 -29 13 -29 29s13 28 29 28h197c16 0 29 -12 29 -28s-13 -29 -29 -29h-70v-611c0 -28 -36 -39 -52 -16l-463 575v-533h70c16 0 29 -13 29 -29s-13 -29 -29 -29h-198c-15 0 -28 13 -28 29s13 29 28 29h71v585h-71c-15 0 -28 13 -28 29
s13 28 28 28h97c15 0 20 -4 29 -15z" />
    <glyph glyph-name="o" unicode="o" horiz-adv-x="819" 
d="M790 351c0 -105 -43 -200 -112 -269s-164 -112 -269 -112s-201 43 -270 112s-111 164 -111 269c0 106 42 201 111 270s165 112 270 112s200 -43 269 -112s112 -164 112 -270zM638 122c59 59 95 140 95 229c0 90 -36 171 -95 229c-59 59 -140 95 -229 95
c-90 0 -171 -36 -229 -95c-59 -58 -95 -139 -95 -229c0 -89 36 -170 95 -229c58 -58 139 -95 229 -95c89 0 170 37 229 95z" />
    <glyph glyph-name="p" unicode="p" horiz-adv-x="723" 
d="M148 645h-75c-15 0 -28 13 -28 29s13 28 28 28h437c248 0 248 -377 0 -377h-305v-268h74c16 0 29 -13 29 -28c0 -16 -13 -29 -29 -29h-206c-15 0 -28 13 -28 29c0 15 13 28 28 28h75v268h-75c-15 0 -28 13 -28 29s13 29 28 29h75v262zM205 645v-262h305
c173 0 173 262 0 262h-305z" />
    <glyph glyph-name="q" unicode="q" horiz-adv-x="809" 
d="M675 85l56 -56c11 -11 11 -29 0 -40s-29 -11 -41 0l-58 58c-64 -48 -144 -77 -231 -77c-105 0 -200 43 -269 112s-112 164 -112 269c0 106 43 201 112 270s164 112 269 112c106 0 201 -43 270 -112s112 -164 112 -270c0 -103 -42 -197 -108 -266zM591 88l-75 75
c-11 11 -11 29 0 41c11 11 29 11 40 0l78 -78c57 58 91 138 91 225c0 90 -36 171 -94 229c-59 59 -140 95 -230 95c-89 0 -170 -36 -229 -95c-58 -58 -95 -139 -95 -229c0 -89 37 -170 95 -229c59 -58 140 -95 229 -95c71 0 136 23 190 61z" />
    <glyph glyph-name="r" unicode="r" horiz-adv-x="800" 
d="M148 643h-74c-16 0 -29 13 -29 29s13 28 29 28h437c248 0 248 -375 0 -375h-33l190 -267h77c15 0 28 -13 28 -29s-13 -29 -28 -29h-206c-16 0 -29 13 -29 29s13 29 29 29h59l-190 267h-203v-268h75c16 0 28 -13 28 -28c0 -16 -12 -29 -28 -29h-206c-16 0 -29 13 -29 29
c0 15 13 28 29 28h74v268h-74c-16 0 -29 13 -29 29s13 29 29 29h74v260zM205 643v-260h306c172 0 172 260 0 260h-306z" />
    <glyph glyph-name="s" unicode="s" horiz-adv-x="768" 
d="M224 378h332c247 0 249 -378 0 -378h-339c-104 0 -195 65 -195 176c0 16 13 28 28 28c16 0 29 -12 29 -28c0 -79 66 -119 138 -119h339c174 0 172 264 0 264h-332c-246 0 -249 379 0 379h269c48 0 99 -14 132 -50v31c0 37 57 37 57 0v-148c0 -16 -13 -29 -29 -29
c-15 0 -28 13 -28 29c0 34 -13 60 -34 78c-24 21 -59 32 -98 32h-269c-173 0 -171 -265 0 -265z" />
    <glyph glyph-name="t" unicode="t" horiz-adv-x="679" 
d="M665 671v-113c0 -16 -13 -29 -29 -29s-29 13 -29 29v85h-242v-586h74c16 0 28 -13 28 -28c0 -16 -12 -29 -28 -29h-206c-16 0 -29 13 -29 29c0 15 13 28 29 28h74v586h-243v-85c0 -16 -12 -29 -28 -29s-29 13 -29 29v113c0 16 13 29 29 29h600c16 0 29 -13 29 -29z" />
    <glyph glyph-name="u" unicode="u" horiz-adv-x="861" 
d="M73 702h206c16 0 28 -13 28 -28c0 -16 -12 -29 -28 -29h-78v-457c0 -72 59 -131 132 -131h188c73 0 132 59 132 131v457h-70c-16 0 -29 13 -29 29c0 15 13 28 29 28h206c16 0 28 -13 28 -28c0 -16 -12 -29 -28 -29h-79v-457c0 -104 -85 -188 -189 -188h-188
c-105 0 -189 84 -189 188v457h-71c-16 0 -29 13 -29 29c0 15 13 28 29 28z" />
    <glyph glyph-name="v" unicode="v" horiz-adv-x="809" 
d="M775 642h-61l-277 -638c-10 -24 -44 -24 -55 -1l-294 639h-56c-16 0 -29 14 -29 29c0 17 13 30 29 30h172c16 0 28 -13 28 -30c0 -15 -12 -29 -28 -29h-53l258 -560l242 560h-48c-15 0 -28 14 -28 29c0 17 13 30 28 30h172c16 0 29 -13 29 -30c0 -15 -13 -29 -29 -29z
" />
    <glyph glyph-name="w" unicode="w" horiz-adv-x="1005" 
d="M31 700h188c15 0 28 -13 28 -30c0 -15 -13 -28 -28 -28h-56l155 -523l160 547c9 32 47 32 56 0l159 -545l150 521h-64c-15 0 -28 13 -28 28c0 17 13 30 28 30h188c16 0 29 -13 29 -30c0 -15 -13 -28 -29 -28h-63l-183 -630c-8 -31 -47 -31 -55 0l-160 546l-160 -548
c-8 -29 -48 -27 -55 2l-189 630h-71c-16 0 -29 13 -29 28c0 17 13 30 29 30z" />
    <glyph glyph-name="x" unicode="x" horiz-adv-x="713" 
d="M612 57h64c16 0 29 -13 29 -29s-13 -28 -29 -28h-78c-10 0 -19 5 -24 13l-216 292l-189 -248h67c16 0 28 -13 28 -29s-12 -28 -28 -28h-201c-16 0 -29 12 -29 28s13 29 29 29h62l224 297l-213 289h-69c-16 0 -28 12 -28 28s12 29 28 29h82c9 0 18 -4 24 -12l213 -287
l182 242h-63c-15 0 -28 12 -28 28s13 29 28 29h202c15 0 28 -13 28 -29s-13 -28 -28 -28h-67l-218 -289z" />
    <glyph glyph-name="y" unicode="y" horiz-adv-x="727" 
d="M334 59v259l-266 325h-39c-16 0 -29 13 -29 29s13 28 29 28h168c16 0 29 -12 29 -28s-13 -29 -29 -29h-55l219 -267l214 267h-48c-16 0 -29 13 -29 29s13 28 29 28h168c16 0 29 -12 29 -28s-13 -29 -29 -29h-46l-258 -322l1 -262h58c16 0 29 -12 29 -28s-13 -29 -29 -29
h-169c-16 0 -28 13 -28 29s12 28 28 28h53z" />
    <glyph glyph-name="z" unicode="z" horiz-adv-x="716" 
d="M684 645l-270 -283h87c16 0 28 -13 28 -28c0 -16 -12 -30 -28 -30h-143l-237 -246h524v79c0 39 57 39 57 0v-108c0 -16 -12 -29 -28 -29h-620c-16 0 -29 13 -29 29c0 9 4 17 10 22l244 253h-110c-16 0 -28 14 -28 30c0 15 12 28 28 28h165l265 276h-488v-86
c0 -16 -12 -29 -28 -29s-28 13 -28 29v115c0 16 12 29 28 29h583c26 0 38 -33 18 -51z" />
    <glyph glyph-name="Zcaron" unicode="&#x17d;" horiz-adv-x="701" 
d="M674 645l-270 -283h87c16 0 28 -13 28 -28c0 -16 -12 -30 -28 -30h-143l-237 -246h524v79c0 39 57 39 57 0v-108c0 -16 -12 -29 -28 -29h-620c-16 0 -29 13 -29 29c0 9 4 17 10 22l244 253h-110c-16 0 -28 14 -28 30c0 15 12 28 28 28h165l265 276h-488v-86
c0 -16 -12 -29 -28 -29s-28 13 -28 29v115c0 16 12 29 28 29h583c26 0 38 -33 18 -51zM344 758l-84 59c-29 24 1 60 30 43l79 -48l81 51c32 20 63 -21 30 -44l-88 -61c-15 -12 -34 -10 -48 0z" />
    <glyph glyph-name="OE" unicode="&#x152;" horiz-adv-x="1019" 
d="M909 642h-365v-262h224c16 0 29 -13 29 -29s-13 -28 -29 -28h-224v-266h392v77c0 15 13 28 29 28s28 -13 28 -28v-102c0 -18 -18 -32 -34 -32h-428c-41 -15 -85 -23 -131 -23c-489 0 -488 749 0 749c48 0 94 -9 137 -26h398c17 0 31 -11 31 -29v-112
c0 -16 -13 -28 -28 -28c-16 0 -29 12 -29 28v83zM400 669c-413 0 -413 -636 0 -636c32 0 63 4 92 12v612c-29 8 -60 12 -92 12z" />
    <glyph glyph-name="Agrave" unicode="&#xc0;" 
d="M679 292v0h-70l-158 352h50c16 0 29 13 29 28c0 16 -13 29 -29 29h-191c-16 0 -29 -13 -29 -29c0 -15 13 -28 29 -28h50l-158 -352h-70c-16 0 -29 -13 -29 -28c0 -17 13 -30 29 -30h44l-79 -176h-68c-16 0 -29 -13 -29 -29s13 -29 29 -29h193c15 0 28 13 28 29
s-13 29 -28 29h-62l79 176h333l79 -176h-61c-16 0 -29 -13 -29 -29s13 -29 29 -29h192c16 0 29 13 29 29s-13 29 -29 29h-68l-79 176h44c16 0 29 13 29 30c0 15 -13 28 -29 28zM405 606l141 -314h-281zM355 879l70 -75c25 -28 -13 -64 -41 -37l-72 69c-32 31 12 76 43 43z
" />
    <glyph glyph-name="Aacute" unicode="&#xc1;" 
d="M679 292c16 0 29 -13 29 -28c0 -17 -13 -30 -29 -30h-44l79 -176h68c16 0 29 -13 29 -29s-13 -29 -29 -29h-192c-16 0 -29 13 -29 29s13 29 29 29h61l-79 176h-333l-79 -176h62c15 0 28 -13 28 -29s-13 -29 -28 -29h-193c-16 0 -29 13 -29 29s13 29 29 29h68l79 176h-44
c-16 0 -29 13 -29 30c0 15 13 28 29 28h70l158 352h-50c-16 0 -29 13 -29 28c0 16 13 29 29 29h191c16 0 29 -13 29 -29c0 -15 -13 -28 -29 -28h-50l158 -352h70v0zM405 606l-140 -314h281zM383 805l70 75c31 33 75 -12 43 -43l-72 -69c-28 -27 -66 9 -41 37z" />
    <glyph glyph-name="Acircumflex" unicode="&#xc2;" 
d="M679 292c16 0 29 -13 29 -28c0 -17 -13 -30 -29 -30h-44l79 -176h68c16 0 29 -13 29 -29s-13 -29 -29 -29h-192c-16 0 -29 13 -29 29s13 29 29 29h61l-79 176h-333l-79 -176h62c15 0 28 -13 28 -29s-13 -29 -28 -29h-193c-16 0 -29 13 -29 29s13 29 29 29h68l79 176h-44
c-16 0 -29 13 -29 30c0 15 13 28 29 28h70l158 352h-50c-16 0 -29 13 -29 28c0 16 13 29 29 29h191c16 0 29 -13 29 -29c0 -15 -13 -28 -29 -28h-50l158 -352h70v0zM405 606l-140 -314h281zM433 870l84 -59c29 -24 -1 -60 -30 -43l-79 48l-81 -51c-32 -20 -63 21 -30 44
l88 61c15 12 34 10 48 0z" />
    <glyph glyph-name="Atilde" unicode="&#xc3;" 
d="M679 292c16 0 29 -13 29 -28c0 -17 -13 -30 -29 -30h-44l79 -176h68c16 0 29 -13 29 -29s-13 -29 -29 -29h-192c-16 0 -29 13 -29 29s13 29 29 29h61l-79 176h-333l-79 -176h62c15 0 28 -13 28 -29s-13 -29 -28 -29h-193c-16 0 -29 13 -29 29s13 29 29 29h68l79 176h-44
c-16 0 -29 13 -29 30c0 15 13 28 29 28h70l158 352h-50c-16 0 -29 13 -29 28c0 16 13 29 29 29h191c16 0 29 -13 29 -29c0 -15 -13 -28 -29 -28h-50l158 -352h70v0zM405 606l-140 -314h281zM272 800c35 63 95 81 158 20c25 -23 63 -23 79 8c12 22 52 4 40 -19
c-35 -60 -94 -68 -141 -27c-28 26 -68 52 -97 0c-13 -21 -50 -8 -39 18z" />
    <glyph glyph-name="Adieresis" unicode="&#xc4;" 
d="M679 292c16 0 29 -13 29 -28c0 -17 -13 -30 -29 -30h-44l79 -176h68c16 0 29 -13 29 -29s-13 -29 -29 -29h-192c-16 0 -29 13 -29 29s13 29 29 29h61l-79 176h-333l-79 -176h62c15 0 28 -13 28 -29s-13 -29 -28 -29h-193c-16 0 -29 13 -29 29s13 29 29 29h68l79 176h-44
c-16 0 -29 13 -29 30c0 15 13 28 29 28h70l158 352h-50c-16 0 -29 13 -29 28c0 16 13 29 29 29h191c16 0 29 -13 29 -29c0 -15 -13 -28 -29 -28h-50l158 -352h70v0zM405 606l-140 -314h281zM258 761h-1c-21 0 -38 17 -38 39s17 39 38 39h1c22 0 39 -17 39 -39
s-17 -39 -39 -39zM548 761h-1c-21 0 -38 17 -38 39s17 39 38 39h1c22 0 39 -17 39 -39s-17 -39 -39 -39z" />
    <glyph glyph-name="Aring" unicode="&#xc5;" 
d="M679 292c16 0 29 -13 29 -28c0 -17 -13 -30 -29 -30h-44l79 -176h68c16 0 29 -13 29 -29s-13 -29 -29 -29h-192c-16 0 -29 13 -29 29s13 29 29 29h61l-79 176h-333l-79 -176h62c15 0 28 -13 28 -29s-13 -29 -28 -29h-193c-16 0 -29 13 -29 29s13 29 29 29h68l79 176h-44
c-16 0 -29 13 -29 30c0 15 13 28 29 28h70l158 352h-50c-16 0 -29 13 -29 28c0 16 13 29 29 29h191c16 0 29 -13 29 -29c0 -15 -13 -28 -29 -28h-50l158 -352h70v0zM405 606l-140 -314h281zM301 817c0 127 210 127 210 0c0 -125 -210 -125 -210 0zM404 868
c-68 0 -71 -101 0 -101c74 0 74 101 0 101z" />
    <glyph glyph-name="AE" unicode="&#xc6;" horiz-adv-x="1066" 
d="M955 642h-344v-301h203c16 0 29 -14 29 -30s-13 -27 -29 -27h-203v-227h371v77c0 15 13 28 29 28s28 -13 28 -28v-102c0 -18 -18 -32 -34 -32h-526c-15 0 -28 12 -28 28s13 29 28 29h75v227h-254l-145 -226h62c15 0 28 -13 28 -29s-13 -29 -28 -29h-193
c-16 0 -29 13 -29 29s13 29 29 29h68l145 226h-44c-16 0 -29 12 -29 29c0 15 13 28 29 28h79l192 303h-50c-16 0 -29 13 -29 28c0 16 13 29 29 29l567 -1c17 0 31 -11 31 -29v-112c0 -16 -13 -28 -28 -28c-16 0 -29 12 -29 28v83zM336 341h218v301h-21z" />
    <glyph glyph-name="Ccedilla" unicode="&#xc7;" horiz-adv-x="686" 
d="M361 58h271c15 0 28 -13 28 -29s-13 -29 -28 -29h-210l-9 -35c69 0 112 -48 98 -106c-14 -53 -60 -78 -121 -75c-46 2 -88 24 -109 68c-12 24 24 46 40 21c15 -26 42 -40 76 -40c26 0 56 8 63 38c8 36 -37 65 -89 51l-20 21l18 57h-8c-457 0 -457 696 0 696h271
c15 0 28 -13 28 -29v-111c0 -16 -13 -29 -28 -29c-16 0 -29 13 -29 29v83h-242c-382 0 -382 -581 0 -581z" />
    <glyph glyph-name="Edieresis" unicode="&#xcb;" horiz-adv-x="724" 
d="M614 642h-409v-262h268c16 0 29 -13 29 -29s-13 -28 -29 -28h-268v-266h436v77c0 15 13 28 29 28s28 -13 28 -28v-102c0 -18 -18 -32 -34 -32h-591c-15 0 -28 12 -28 28s13 29 28 29h75v266h-75c-15 0 -28 12 -28 28s13 29 28 29h75v262h-75c-15 0 -28 13 -28 29
s13 29 28 29h567c17 0 31 -11 31 -29v-112c0 -16 -13 -28 -28 -28c-16 0 -29 12 -29 28v83zM249 770h-1c-21 0 -38 17 -38 39s17 39 38 39h1c22 0 39 -17 39 -39s-17 -39 -39 -39zM539 770h-1c-21 0 -38 17 -38 39s17 39 38 39h1c22 0 39 -17 39 -39s-17 -39 -39 -39z" />
    <glyph glyph-name="Ecircumflex" unicode="&#xca;" horiz-adv-x="724" 
d="M614 642h-409v-262h268c16 0 29 -13 29 -29s-13 -28 -29 -28h-268v-266h436v77c0 15 13 28 29 28s28 -13 28 -28v-102c0 -18 -18 -32 -34 -32h-591c-15 0 -28 12 -28 28s13 29 28 29h75v266h-75c-15 0 -28 12 -28 28s13 29 28 29h75v262h-75c-15 0 -28 13 -28 29
s13 29 28 29h567c17 0 31 -11 31 -29v-112c0 -16 -13 -28 -28 -28c-16 0 -29 12 -29 28v83zM422 870l84 -59c29 -24 -1 -60 -30 -43l-79 48l-81 -51c-32 -20 -63 21 -30 44l88 61c15 12 34 10 48 0z" />
    <glyph glyph-name="Eacute" unicode="&#xc9;" horiz-adv-x="724" 
d="M614 642h-409v-262h268c16 0 29 -13 29 -29s-13 -28 -29 -28h-268v-266h436v77c0 15 13 28 29 28s28 -13 28 -28v-102c0 -18 -18 -32 -34 -32h-591c-15 0 -28 12 -28 28s13 29 28 29h75v266h-75c-15 0 -28 12 -28 28s13 29 28 29h75v262h-75c-15 0 -28 13 -28 29
s13 29 28 29h567c17 0 31 -11 31 -29v-112c0 -16 -13 -28 -28 -28c-16 0 -29 12 -29 28v83zM371 805l70 75c31 33 75 -12 43 -43l-72 -69c-28 -27 -66 9 -41 37z" />
    <glyph glyph-name="Egrave" unicode="&#xc8;" horiz-adv-x="724" 
d="M205 642h409v-83c0 -16 13 -28 29 -28c15 0 28 12 28 28v112c0 18 -14 29 -31 29h-567c-15 0 -28 -13 -28 -29s13 -29 28 -29h75v-262h-75c-15 0 -28 -13 -28 -29s13 -28 28 -28h75v-266h-75c-15 0 -28 -13 -28 -29s13 -28 28 -28h591c16 0 34 14 34 32v102
c0 15 -12 28 -28 28s-29 -13 -29 -28v-77h-436v266h268c16 0 29 12 29 28s-13 29 -29 29h-268v262zM368 883l70 -75c25 -28 -13 -64 -41 -37l-72 69c-32 31 12 76 43 43z" />
    <glyph glyph-name="Idieresis" unicode="&#xcf;" horiz-adv-x="289" 
d="M46 764h-1c-21 0 -38 17 -38 39s17 39 38 39h1c22 0 39 -17 39 -39s-17 -39 -39 -39zM246 764h-1c-21 0 -38 17 -38 39s17 39 38 39h1c22 0 39 -17 39 -39s-17 -39 -39 -39zM247 642h-74v-585h74c16 0 29 -13 29 -29s-13 -28 -29 -28h-206c-16 0 -29 12 -29 28
s13 29 29 29h74v585h-74c-16 0 -29 13 -29 29s13 29 29 29h206c16 0 29 -13 29 -29s-13 -29 -29 -29z" />
    <glyph glyph-name="Icircumflex" unicode="&#xce;" horiz-adv-x="289" 
d="M247 642h-74v-585h74c16 0 29 -13 29 -29s-13 -28 -29 -28h-206c-16 0 -29 12 -29 28s13 29 29 29h74v585h-74c-16 0 -29 13 -29 29s13 29 29 29h206c16 0 29 -13 29 -29s-13 -29 -29 -29zM171 874l84 -59c29 -24 -1 -60 -30 -43l-79 48l-81 -51c-32 -20 -63 21 -30 44
l88 61c15 12 34 10 48 0z" />
    <glyph glyph-name="Iacute" unicode="&#xcd;" horiz-adv-x="289" 
d="M247 642h-74v-585h74c16 0 29 -13 29 -29s-13 -28 -29 -28h-206c-16 0 -29 12 -29 28s13 29 29 29h74v585h-74c-16 0 -29 13 -29 29s13 29 29 29h206c16 0 29 -13 29 -29s-13 -29 -29 -29zM120 806l70 75c31 33 75 -12 43 -43l-72 -69c-28 -27 -66 9 -41 37z" />
    <glyph glyph-name="Igrave" unicode="&#xcc;" horiz-adv-x="289" 
d="M173 642h74c16 0 29 13 29 29s-13 29 -29 29h-206c-16 0 -29 -13 -29 -29s13 -29 29 -29h74v-585h-74c-16 0 -29 -13 -29 -29s13 -28 29 -28h206c16 0 29 12 29 28s-13 29 -29 29h-74v585zM95 883l70 -75c25 -28 -13 -64 -41 -37l-72 69c-32 31 12 76 43 43z" />
    <glyph glyph-name="Eth" unicode="&#xd0;" horiz-adv-x="739" 
d="M151 323h-75c-16 0 -29 11 -29 27s13 28 29 28h75v261h-79c-15 0 -28 12 -28 28s13 29 28 29h297c458 0 458 -696 0 -696h-297c-15 0 -28 13 -28 29s13 29 28 29h79v265zM208 58h161c383 0 383 581 0 581h-161v-261h131c16 0 29 -12 29 -28s-13 -27 -29 -27h-131v-265z
" />
    <glyph glyph-name="Ntilde" unicode="&#xd1;" horiz-adv-x="856" 
d="M199 685l460 -572v530h-70c-16 0 -29 13 -29 29s13 28 29 28h197c16 0 29 -12 29 -28s-13 -29 -29 -29h-70v-611c0 -28 -36 -39 -52 -16l-463 575v-533h70c16 0 29 -13 29 -29s-13 -29 -29 -29h-198c-15 0 -28 13 -28 29s13 29 28 29h71v585h-71c-15 0 -28 13 -28 29
s13 28 28 28h97c15 0 20 -4 29 -15zM284 813c35 63 95 81 158 20c25 -23 63 -23 79 8c12 22 52 4 40 -19c-35 -60 -94 -68 -141 -27c-28 26 -68 52 -97 0c-13 -21 -50 -8 -39 18z" />
    <glyph glyph-name="Odieresis" unicode="&#xd6;" horiz-adv-x="805" 
d="M781 351c0 -105 -43 -200 -112 -269s-164 -112 -269 -112s-201 43 -270 112s-111 164 -111 269c0 106 42 201 111 270s165 112 270 112s200 -43 269 -112s112 -164 112 -270zM629 122c59 59 95 140 95 229c0 90 -36 171 -95 229c-59 59 -140 95 -229 95
c-90 0 -171 -36 -229 -95c-59 -58 -95 -139 -95 -229c0 -89 36 -170 95 -229c58 -58 139 -95 229 -95c89 0 170 37 229 95zM257 775h-1c-21 0 -38 17 -38 39s17 39 38 39h1c22 0 39 -17 39 -39s-17 -39 -39 -39zM547 775h-1c-21 0 -38 17 -38 39s17 39 38 39h1
c22 0 39 -17 39 -39s-17 -39 -39 -39z" />
    <glyph glyph-name="Otilde" unicode="&#xd5;" horiz-adv-x="805" 
d="M263 813c32 65 90 86 156 28c27 -21 65 -20 79 13c11 22 52 6 41 -18c-32 -62 -90 -73 -139 -34c-30 24 -71 48 -97 -6c-12 -21 -50 -10 -40 17zM781 351c0 -105 -43 -200 -112 -269s-164 -112 -269 -112s-201 43 -270 112s-111 164 -111 269c0 106 42 201 111 270
s165 112 270 112s200 -43 269 -112s112 -164 112 -270zM629 122c59 59 95 140 95 229c0 90 -36 171 -95 229c-59 59 -140 95 -229 95c-90 0 -171 -36 -229 -95c-59 -58 -95 -139 -95 -229c0 -89 36 -170 95 -229c58 -58 139 -95 229 -95c89 0 170 37 229 95z" />
    <glyph glyph-name="Ocircumflex" unicode="&#xd4;" horiz-adv-x="805" 
d="M781 351c0 -105 -43 -200 -112 -269s-164 -112 -269 -112s-201 43 -270 112s-111 164 -111 269c0 106 42 201 111 270s165 112 270 112s200 -43 269 -112s112 -164 112 -270zM629 122c59 59 95 140 95 229c0 90 -36 171 -95 229c-59 59 -140 95 -229 95
c-90 0 -171 -36 -229 -95c-59 -58 -95 -139 -95 -229c0 -89 36 -170 95 -229c58 -58 139 -95 229 -95c89 0 170 37 229 95zM430 885l84 -59c29 -24 -1 -60 -30 -43l-79 48l-81 -51c-32 -20 -63 21 -30 44l88 61c15 12 34 10 48 0z" />
    <glyph glyph-name="Oacute" unicode="&#xd3;" horiz-adv-x="805" 
d="M781 351c0 -105 -43 -200 -112 -269s-164 -112 -269 -112s-201 43 -270 112s-111 164 -111 269c0 106 42 201 111 270s165 112 270 112s200 -43 269 -112s112 -164 112 -270zM629 122c59 59 95 140 95 229c0 90 -36 171 -95 229c-59 59 -140 95 -229 95
c-90 0 -171 -36 -229 -95c-59 -58 -95 -139 -95 -229c0 -89 36 -170 95 -229c58 -58 139 -95 229 -95c89 0 170 37 229 95zM379 825l70 75c31 33 75 -12 43 -43l-72 -69c-28 -27 -66 9 -41 37z" />
    <glyph glyph-name="Ograve" unicode="&#xd2;" horiz-adv-x="805" 
d="M781 351c0 106 -43 201 -112 270s-164 112 -269 112s-201 -43 -270 -112s-111 -164 -111 -270c0 -105 42 -200 111 -269s165 -112 270 -112s200 43 269 112s112 164 112 269zM629 122c-59 -58 -140 -95 -229 -95c-90 0 -171 37 -229 95c-59 59 -95 140 -95 229
c0 90 36 171 95 229c58 59 139 95 229 95c89 0 170 -36 229 -95c59 -58 95 -139 95 -229c0 -89 -36 -170 -95 -229zM364 895l70 -75c25 -28 -13 -64 -41 -37l-72 69c-32 31 12 76 43 43z" />
    <glyph glyph-name="Oslash" unicode="&#xd8;" horiz-adv-x="805" 
d="M781 351c0 -105 -43 -200 -112 -269s-164 -112 -269 -112c-64 0 -125 16 -178 44l-65 -101c-20 -33 -62 1 -44 31l63 98c-16 12 -32 25 -46 40c-69 69 -111 164 -111 269c0 106 42 201 111 270s165 112 270 112c69 0 133 -19 189 -51l49 77c19 33 65 0 46 -30l-50 -78
c12 -9 24 -19 35 -30c69 -69 112 -164 112 -270zM400 675c-90 0 -171 -36 -229 -95c-59 -58 -95 -139 -95 -229c0 -89 36 -170 95 -229c11 -12 23 -22 36 -32l350 544c-47 26 -100 41 -157 41zM629 122c59 59 95 140 95 229c0 90 -36 171 -95 229c-9 8 -17 16 -26 23
l-350 -541c44 -23 94 -35 147 -35c89 0 170 37 229 95z" />
    <glyph glyph-name="Yacute" unicode="&#xdd;" horiz-adv-x="724" 
d="M333 59v257l-266 322h-39c-16 0 -29 13 -29 29s13 28 29 28h168c16 0 29 -12 29 -28s-13 -29 -29 -29h-55l219 -265l213 265h-48c-16 0 -29 13 -29 29s13 28 29 28h168c16 0 29 -12 29 -28s-13 -29 -29 -29h-46l-258 -319l1 -260h58c16 0 29 -12 29 -28s-13 -29 -29 -29
h-168c-16 0 -28 13 -28 29s12 28 28 28h53zM339 817l70 75c31 33 75 -12 43 -43l-72 -69c-28 -27 -66 9 -41 37z" />
    <glyph glyph-name="Udieresis" unicode="&#xdc;" horiz-adv-x="865" 
d="M77 702h206c16 0 28 -13 28 -28c0 -16 -12 -29 -28 -29h-78v-457c0 -72 59 -131 132 -131h188c73 0 132 59 132 131v457h-70c-16 0 -29 13 -29 29c0 15 13 28 29 28h206c16 0 28 -13 28 -28c0 -16 -12 -29 -28 -29h-79v-457c0 -104 -85 -188 -189 -188h-188
c-105 0 -189 84 -189 188v457h-71c-16 0 -29 13 -29 29c0 15 13 28 29 28zM291 770h-1c-21 0 -38 17 -38 39s17 39 38 39h1c22 0 39 -17 39 -39s-17 -39 -39 -39zM581 770h-1c-21 0 -38 17 -38 39s17 39 38 39h1c22 0 39 -17 39 -39s-17 -39 -39 -39z" />
    <glyph glyph-name="Ucircumflex" unicode="&#xdb;" horiz-adv-x="865" 
d="M77 702h206c16 0 28 -13 28 -28c0 -16 -12 -29 -28 -29h-78v-457c0 -72 59 -131 132 -131h188c73 0 132 59 132 131v457h-70c-16 0 -29 13 -29 29c0 15 13 28 29 28h206c16 0 28 -13 28 -28c0 -16 -12 -29 -28 -29h-79v-457c0 -104 -85 -188 -189 -188h-188
c-105 0 -189 84 -189 188v457h-71c-16 0 -29 13 -29 29c0 15 13 28 29 28zM464 877l84 -59c29 -24 -1 -60 -30 -43l-79 48l-81 -51c-32 -20 -63 21 -30 44l88 61c15 12 34 10 48 0z" />
    <glyph glyph-name="Uacute" unicode="&#xda;" horiz-adv-x="865" 
d="M77 702h206c16 0 28 -13 28 -28c0 -16 -12 -29 -28 -29h-78v-457c0 -72 59 -131 132 -131h188c73 0 132 59 132 131v457h-70c-16 0 -29 13 -29 29c0 15 13 28 29 28h206c16 0 28 -13 28 -28c0 -16 -12 -29 -28 -29h-79v-457c0 -104 -85 -188 -189 -188h-188
c-105 0 -189 84 -189 188v457h-71c-16 0 -29 13 -29 29c0 15 13 28 29 28zM411 817l70 75c31 33 75 -12 43 -43l-72 -69c-28 -27 -66 9 -41 37z" />
    <glyph glyph-name="Ugrave" unicode="&#xd9;" horiz-adv-x="865" 
d="M283 702h-206c-16 0 -29 -13 -29 -28c0 -16 13 -29 29 -29h71v-457c0 -104 84 -188 189 -188h188c104 0 189 84 189 188v457h79c16 0 28 13 28 29c0 15 -12 28 -28 28h-206c-16 0 -29 -13 -29 -28c0 -16 13 -29 29 -29h70v-457c0 -72 -59 -131 -132 -131h-188
c-73 0 -132 59 -132 131v457h78c16 0 28 13 28 29c0 15 -12 28 -28 28zM391 894l70 -75c25 -28 -13 -64 -41 -37l-72 69c-32 31 12 76 43 43z" />
    <glyph glyph-name="aring" unicode="&#xe5;" horiz-adv-x="817" 
d="M680 292c16 0 29 -13 29 -28c0 -17 -13 -30 -29 -30h-44l79 -176h68c16 0 29 -13 29 -29s-13 -29 -29 -29h-192c-16 0 -29 13 -29 29s13 29 29 29h61l-79 176h-333l-79 -176h62c15 0 28 -13 28 -29s-13 -29 -28 -29h-193c-16 0 -29 13 -29 29s13 29 29 29h68l79 176h-44
c-16 0 -29 13 -29 30c0 15 13 28 29 28h70l158 352h-50c-16 0 -29 13 -29 28c0 16 13 29 29 29h191c16 0 29 -13 29 -29c0 -15 -13 -28 -29 -28h-50l158 -352h70v0zM406 606l-140 -314h281zM301 828c0 127 210 127 210 0c0 -125 -210 -125 -210 0zM404 879
c-68 0 -71 -101 0 -101c74 0 74 101 0 101z" />
    <glyph glyph-name="adieresis" unicode="&#xe4;" horiz-adv-x="817" 
d="M680 292c16 0 29 -13 29 -28c0 -17 -13 -30 -29 -30h-44l79 -176h68c16 0 29 -13 29 -29s-13 -29 -29 -29h-192c-16 0 -29 13 -29 29s13 29 29 29h61l-79 176h-333l-79 -176h62c15 0 28 -13 28 -29s-13 -29 -28 -29h-193c-16 0 -29 13 -29 29s13 29 29 29h68l79 176h-44
c-16 0 -29 13 -29 30c0 15 13 28 29 28h70l158 352h-50c-16 0 -29 13 -29 28c0 16 13 29 29 29h191c16 0 29 -13 29 -29c0 -15 -13 -28 -29 -28h-50l158 -352h70v0zM406 606l-140 -314h281zM261 763h-1c-21 0 -38 17 -38 39s17 39 38 39h1c22 0 39 -17 39 -39
s-17 -39 -39 -39zM551 763h-1c-21 0 -38 17 -38 39s17 39 38 39h1c22 0 39 -17 39 -39s-17 -39 -39 -39z" />
    <glyph glyph-name="acircumflex" unicode="&#xe2;" horiz-adv-x="817" 
d="M680 292c16 0 29 -13 29 -28c0 -17 -13 -30 -29 -30h-44l79 -176h68c16 0 29 -13 29 -29s-13 -29 -29 -29h-192c-16 0 -29 13 -29 29s13 29 29 29h61l-79 176h-333l-79 -176h62c15 0 28 -13 28 -29s-13 -29 -28 -29h-193c-16 0 -29 13 -29 29s13 29 29 29h68l79 176h-44
c-16 0 -29 13 -29 30c0 15 13 28 29 28h70l158 352h-50c-16 0 -29 13 -29 28c0 16 13 29 29 29h191c16 0 29 -13 29 -29c0 -15 -13 -28 -29 -28h-50l158 -352h70v0zM406 606l-140 -314h281zM439 875l84 -59c29 -24 -1 -60 -30 -43l-79 48l-81 -51c-32 -20 -63 21 -30 44
l88 61c15 12 34 10 48 0z" />
    <glyph glyph-name="atilde" unicode="&#xe3;" horiz-adv-x="817" 
d="M680 292c16 0 29 -13 29 -28c0 -17 -13 -30 -29 -30h-44l79 -176h68c16 0 29 -13 29 -29s-13 -29 -29 -29h-192c-16 0 -29 13 -29 29s13 29 29 29h61l-79 176h-333l-79 -176h62c15 0 28 -13 28 -29s-13 -29 -28 -29h-193c-16 0 -29 13 -29 29s13 29 29 29h68l79 176h-44
c-16 0 -29 13 -29 30c0 15 13 28 29 28h70l158 352h-50c-16 0 -29 13 -29 28c0 16 13 29 29 29h191c16 0 29 -13 29 -29c0 -15 -13 -28 -29 -28h-50l158 -352h70v0zM406 606l-140 -314h281zM267 804c35 63 95 81 158 20c25 -23 63 -23 79 8c12 22 52 4 40 -19
c-35 -60 -94 -68 -141 -27c-28 26 -68 52 -97 0c-13 -21 -50 -8 -39 18z" />
    <glyph glyph-name="aacute" unicode="&#xe1;" horiz-adv-x="817" 
d="M680 292c16 0 29 -13 29 -28c0 -17 -13 -30 -29 -30h-44l79 -176h68c16 0 29 -13 29 -29s-13 -29 -29 -29h-192c-16 0 -29 13 -29 29s13 29 29 29h61l-79 176h-333l-79 -176h62c15 0 28 -13 28 -29s-13 -29 -28 -29h-193c-16 0 -29 13 -29 29s13 29 29 29h68l79 176h-44
c-16 0 -29 13 -29 30c0 15 13 28 29 28h70l158 352h-50c-16 0 -29 13 -29 28c0 16 13 29 29 29h191c16 0 29 -13 29 -29c0 -15 -13 -28 -29 -28h-50l158 -352h70v0zM406 606l-140 -314h281zM391 809l70 75c31 33 75 -12 43 -43l-72 -69c-28 -27 -66 9 -41 37z" />
    <glyph glyph-name="agrave" unicode="&#xe0;" horiz-adv-x="817" 
d="M680 292v0h-70l-158 352h50c16 0 29 13 29 28c0 16 -13 29 -29 29h-191c-16 0 -29 -13 -29 -29c0 -15 13 -28 29 -28h50l-158 -352h-70c-16 0 -29 -13 -29 -28c0 -17 13 -30 29 -30h44l-79 -176h-68c-16 0 -29 -13 -29 -29s13 -29 29 -29h193c15 0 28 13 28 29
s-13 29 -28 29h-62l79 176h333l79 -176h-61c-16 0 -29 -13 -29 -29s13 -29 29 -29h192c16 0 29 13 29 29s-13 29 -29 29h-68l-79 176h44c16 0 29 13 29 30c0 15 -13 28 -29 28zM406 606l141 -314h-281zM359 878l70 -75c25 -28 -13 -64 -41 -37l-72 69c-32 31 12 76 43 43z
" />
    <glyph glyph-name="ccedilla" unicode="&#xe7;" horiz-adv-x="686" 
d="M361 58h271c15 0 28 -13 28 -29s-13 -29 -28 -29h-223l-10 -40c69 0 112 -48 98 -106c-14 -53 -60 -78 -121 -75c-46 2 -88 24 -109 68c-12 24 24 46 40 21c15 -26 42 -40 76 -40c26 0 56 8 63 38c8 36 -37 65 -89 51l-20 21l19 62c-452 4 -450 696 5 696h271
c15 0 28 -13 28 -29v-111c0 -16 -13 -29 -28 -29c-16 0 -29 13 -29 29v83h-242c-382 0 -382 -581 0 -581z" />
    <glyph glyph-name="edieresis" unicode="&#xeb;" horiz-adv-x="725" 
d="M614 642h-409v-262h268c16 0 29 -13 29 -29s-13 -28 -29 -28h-268v-266h436v77c0 15 13 28 29 28s28 -13 28 -28v-102c0 -18 -18 -32 -34 -32h-591c-15 0 -28 12 -28 28s13 29 28 29h75v266h-75c-15 0 -28 12 -28 28s13 29 28 29h75v262h-75c-15 0 -28 13 -28 29
s13 29 28 29h567c17 0 31 -11 31 -29v-112c0 -16 -13 -28 -28 -28c-16 0 -29 12 -29 28v83zM240 768h-1c-21 0 -38 17 -38 39s17 39 38 39h1c22 0 39 -17 39 -39s-17 -39 -39 -39zM530 768h-1c-21 0 -38 17 -38 39s17 39 38 39h1c22 0 39 -17 39 -39s-17 -39 -39 -39z" />
    <glyph glyph-name="ecircumflex" unicode="&#xea;" horiz-adv-x="725" 
d="M614 642h-409v-262h268c16 0 29 -13 29 -29s-13 -28 -29 -28h-268v-266h436v77c0 15 13 28 29 28s28 -13 28 -28v-102c0 -18 -18 -32 -34 -32h-591c-15 0 -28 12 -28 28s13 29 28 29h75v266h-75c-15 0 -28 12 -28 28s13 29 28 29h75v262h-75c-15 0 -28 13 -28 29
s13 29 28 29h567c17 0 31 -11 31 -29v-112c0 -16 -13 -28 -28 -28c-16 0 -29 12 -29 28v83zM434 875l84 -59c29 -24 -1 -60 -30 -43l-79 48l-81 -51c-32 -20 -63 21 -30 44l88 61c15 12 34 10 48 0z" />
    <glyph glyph-name="eacute" unicode="&#xe9;" horiz-adv-x="725" 
d="M614 642h-409v-262h268c16 0 29 -13 29 -29s-13 -28 -29 -28h-268v-266h436v77c0 15 13 28 29 28s28 -13 28 -28v-102c0 -18 -18 -32 -34 -32h-591c-15 0 -28 12 -28 28s13 29 28 29h75v266h-75c-15 0 -28 12 -28 28s13 29 28 29h75v262h-75c-15 0 -28 13 -28 29
s13 29 28 29h567c17 0 31 -11 31 -29v-112c0 -16 -13 -28 -28 -28c-16 0 -29 12 -29 28v83zM370 808l70 75c31 33 75 -12 43 -43l-72 -69c-28 -27 -66 9 -41 37z" />
    <glyph glyph-name="egrave" unicode="&#xe8;" horiz-adv-x="725" 
d="M205 642h409v-83c0 -16 13 -28 29 -28c15 0 28 12 28 28v112c0 18 -14 29 -31 29h-567c-15 0 -28 -13 -28 -29s13 -29 28 -29h75v-262h-75c-15 0 -28 -13 -28 -29s13 -28 28 -28h75v-266h-75c-15 0 -28 -13 -28 -29s13 -28 28 -28h591c16 0 34 14 34 32v102
c0 15 -12 28 -28 28s-29 -13 -29 -28v-77h-436v266h268c16 0 29 12 29 28s-13 29 -29 29h-268v262zM350 881l70 -75c25 -28 -13 -64 -41 -37l-72 69c-32 31 12 76 43 43z" />
    <glyph glyph-name="idieresis" unicode="&#xef;" horiz-adv-x="299" 
d="M58 768h-1c-21 0 -38 17 -38 39s17 39 38 39h1c22 0 39 -17 39 -39s-17 -39 -39 -39zM229 768h-1c-21 0 -38 17 -38 39s17 39 38 39h1c22 0 39 -17 39 -39s-17 -39 -39 -39zM247 642h-74v-585h74c16 0 29 -13 29 -29s-13 -28 -29 -28h-206c-16 0 -29 12 -29 28
s13 29 29 29h74v585h-74c-16 0 -29 13 -29 29s13 29 29 29h206c16 0 29 -13 29 -29s-13 -29 -29 -29z" />
    <glyph glyph-name="icircumflex" unicode="&#xee;" horiz-adv-x="299" 
d="M247 642h-74v-585h74c16 0 29 -13 29 -29s-13 -28 -29 -28h-206c-16 0 -29 12 -29 28s13 29 29 29h74v585h-74c-16 0 -29 13 -29 29s13 29 29 29h206c16 0 29 -13 29 -29s-13 -29 -29 -29zM172 876l84 -59c29 -24 -1 -60 -30 -43l-79 48l-81 -51c-32 -20 -63 21 -30 44
l88 61c15 12 34 10 48 0z" />
    <glyph glyph-name="iacute" unicode="&#xed;" horiz-adv-x="299" 
d="M247 642h-74v-585h74c16 0 29 -13 29 -29s-13 -28 -29 -28h-206c-16 0 -29 12 -29 28s13 29 29 29h74v585h-74c-16 0 -29 13 -29 29s13 29 29 29h206c16 0 29 -13 29 -29s-13 -29 -29 -29zM123 811l70 75c31 33 75 -12 43 -43l-72 -69c-28 -27 -66 9 -41 37z" />
    <glyph glyph-name="igrave" unicode="&#xec;" horiz-adv-x="299" 
d="M173 642h74c16 0 29 13 29 29s-13 29 -29 29h-206c-16 0 -29 -13 -29 -29s13 -29 29 -29h74v-585h-74c-16 0 -29 -13 -29 -29s13 -28 29 -28h206c16 0 29 12 29 28s-13 29 -29 29h-74v585zM101 886l70 -75c25 -28 -13 -64 -41 -37l-72 69c-32 31 12 76 43 43z" />
    <glyph glyph-name="ntilde" unicode="&#xf1;" horiz-adv-x="857" 
d="M199 685l460 -572v530h-70c-16 0 -29 13 -29 29s13 28 29 28h197c16 0 29 -12 29 -28s-13 -29 -29 -29h-70v-611c0 -28 -36 -39 -52 -16l-463 575v-533h70c16 0 29 -13 29 -29s-13 -29 -29 -29h-198c-15 0 -28 13 -28 29s13 29 28 29h71v585h-71c-15 0 -28 13 -28 29
s13 28 28 28h97c15 0 20 -4 29 -15zM283 795c35 63 95 81 158 20c25 -23 63 -23 79 8c12 22 52 4 40 -19c-35 -60 -94 -68 -141 -27c-28 26 -68 52 -97 0c-13 -21 -50 -8 -39 18z" />
    <glyph glyph-name="odieresis" unicode="&#xf6;" horiz-adv-x="819" 
d="M777 351c0 -105 -43 -200 -112 -269s-164 -112 -269 -112s-201 43 -270 112s-111 164 -111 269c0 106 42 201 111 270s165 112 270 112s200 -43 269 -112s112 -164 112 -270zM625 122c59 59 95 140 95 229c0 90 -36 171 -95 229c-59 59 -140 95 -229 95
c-90 0 -171 -36 -229 -95c-59 -58 -95 -139 -95 -229c0 -89 36 -170 95 -229c58 -58 139 -95 229 -95c89 0 170 37 229 95zM270 772h-1c-21 0 -38 17 -38 39s17 39 38 39h1c22 0 39 -17 39 -39s-17 -39 -39 -39zM560 772h-1c-21 0 -38 17 -38 39s17 39 38 39h1
c22 0 39 -17 39 -39s-17 -39 -39 -39z" />
    <glyph glyph-name="ocircumflex" unicode="&#xf4;" horiz-adv-x="819" 
d="M777 351c0 -105 -43 -200 -112 -269s-164 -112 -269 -112s-201 43 -270 112s-111 164 -111 269c0 106 42 201 111 270s165 112 270 112s200 -43 269 -112s112 -164 112 -270zM625 122c59 59 95 140 95 229c0 90 -36 171 -95 229c-59 59 -140 95 -229 95
c-90 0 -171 -36 -229 -95c-59 -58 -95 -139 -95 -229c0 -89 36 -170 95 -229c58 -58 139 -95 229 -95c89 0 170 37 229 95zM435 883l84 -59c29 -24 -1 -60 -30 -43l-79 48l-81 -51c-32 -20 -63 21 -30 44l88 61c15 12 34 10 48 0z" />
    <glyph glyph-name="otilde" unicode="&#xf5;" horiz-adv-x="819" 
d="M271 815c32 64 91 84 157 26c25 -22 64 -21 78 11c11 23 52 6 41 -17c-33 -62 -91 -72 -139 -33c-30 25 -71 49 -98 -4c-12 -22 -49 -10 -39 17zM777 351c0 -105 -43 -200 -112 -269s-164 -112 -269 -112s-201 43 -270 112s-111 164 -111 269c0 106 42 201 111 270
s165 112 270 112s200 -43 269 -112s112 -164 112 -270zM625 122c59 59 95 140 95 229c0 90 -36 171 -95 229c-59 59 -140 95 -229 95c-90 0 -171 -36 -229 -95c-59 -58 -95 -139 -95 -229c0 -89 36 -170 95 -229c58 -58 139 -95 229 -95c89 0 170 37 229 95z" />
    <glyph glyph-name="oacute" unicode="&#xf3;" horiz-adv-x="819" 
d="M777 351c0 -105 -43 -200 -112 -269s-164 -112 -269 -112s-201 43 -270 112s-111 164 -111 269c0 106 42 201 111 270s165 112 270 112s200 -43 269 -112s112 -164 112 -270zM625 122c59 59 95 140 95 229c0 90 -36 171 -95 229c-59 59 -140 95 -229 95
c-90 0 -171 -36 -229 -95c-59 -58 -95 -139 -95 -229c0 -89 36 -170 95 -229c58 -58 139 -95 229 -95c89 0 170 37 229 95zM386 823l70 75c31 33 75 -12 43 -43l-72 -69c-28 -27 -66 9 -41 37z" />
    <glyph glyph-name="ograve" unicode="&#xf2;" horiz-adv-x="819" 
d="M777 351c0 106 -43 201 -112 270s-164 112 -269 112s-201 -43 -270 -112s-111 -164 -111 -270c0 -105 42 -200 111 -269s165 -112 270 -112s200 43 269 112s112 164 112 269zM625 122c-59 -58 -140 -95 -229 -95c-90 0 -171 37 -229 95c-59 59 -95 140 -95 229
c0 90 36 171 95 229c58 59 139 95 229 95c89 0 170 -36 229 -95c59 -58 95 -139 95 -229c0 -89 -36 -170 -95 -229zM357 894l70 -75c25 -28 -13 -64 -41 -37l-72 69c-32 31 12 76 43 43z" />
    <glyph glyph-name="oslash" unicode="&#xf8;" horiz-adv-x="804" 
d="M781 351c0 -105 -43 -200 -112 -269s-164 -112 -269 -112c-64 0 -125 16 -178 44l-65 -101c-20 -33 -62 1 -44 31l63 98c-16 12 -32 25 -46 40c-69 69 -111 164 -111 269c0 106 42 201 111 270s165 112 270 112c69 0 133 -19 189 -51l49 77c19 33 65 0 46 -30l-50 -78
c12 -9 24 -19 35 -30c69 -69 112 -164 112 -270zM400 675c-90 0 -171 -36 -229 -95c-59 -58 -95 -139 -95 -229c0 -89 36 -170 95 -229c11 -12 23 -22 36 -32l350 544c-47 26 -100 41 -157 41zM629 122c59 59 95 140 95 229c0 90 -36 171 -95 229c-9 8 -17 16 -26 23
l-350 -541c44 -23 94 -35 147 -35c89 0 170 37 229 95z" />
    <glyph glyph-name="ydieresis" unicode="&#xff;" horiz-adv-x="727" 
d="M334 59v259l-266 325h-39c-16 0 -29 13 -29 29s13 28 29 28h168c16 0 29 -12 29 -28s-13 -29 -29 -29h-55l219 -267l214 267h-48c-16 0 -29 13 -29 29s13 28 29 28h168c16 0 29 -12 29 -28s-13 -29 -29 -29h-46l-258 -322l1 -262h58c16 0 29 -12 29 -28s-13 -29 -29 -29
h-169c-16 0 -28 13 -28 29s12 28 28 28h53zM216 767h-1c-21 0 -38 17 -38 39s17 39 38 39h1c22 0 39 -17 39 -39s-17 -39 -39 -39zM506 767h-1c-21 0 -38 17 -38 39s17 39 38 39h1c22 0 39 -17 39 -39s-17 -39 -39 -39z" />
    <glyph glyph-name="yacute" unicode="&#xfd;" horiz-adv-x="727" 
d="M334 59v259l-266 325h-39c-16 0 -29 13 -29 29s13 28 29 28h168c16 0 29 -12 29 -28s-13 -29 -29 -29h-55l219 -267l214 267h-48c-16 0 -29 13 -29 29s13 28 29 28h168c16 0 29 -12 29 -28s-13 -29 -29 -29h-46l-258 -322l1 -262h58c16 0 29 -12 29 -28s-13 -29 -29 -29
h-169c-16 0 -28 13 -28 29s12 28 28 28h53zM351 818l70 75c31 33 75 -12 43 -43l-72 -69c-28 -27 -66 9 -41 37z" />
    <glyph glyph-name="udieresis" unicode="&#xfc;" horiz-adv-x="861" 
d="M73 702h206c16 0 28 -13 28 -28c0 -16 -12 -29 -28 -29h-78v-457c0 -72 59 -131 132 -131h188c73 0 132 59 132 131v457h-70c-16 0 -29 13 -29 29c0 15 13 28 29 28h206c16 0 28 -13 28 -28c0 -16 -12 -29 -28 -29h-79v-457c0 -104 -85 -188 -189 -188h-188
c-105 0 -189 84 -189 188v457h-71c-16 0 -29 13 -29 29c0 15 13 28 29 28zM285 770h-1c-21 0 -38 17 -38 39s17 39 38 39h1c22 0 39 -17 39 -39s-17 -39 -39 -39zM575 770h-1c-21 0 -38 17 -38 39s17 39 38 39h1c22 0 39 -17 39 -39s-17 -39 -39 -39z" />
    <glyph glyph-name="ucircumflex" unicode="&#xfb;" horiz-adv-x="861" 
d="M73 702h206c16 0 28 -13 28 -28c0 -16 -12 -29 -28 -29h-78v-457c0 -72 59 -131 132 -131h188c73 0 132 59 132 131v457h-70c-16 0 -29 13 -29 29c0 15 13 28 29 28h206c16 0 28 -13 28 -28c0 -16 -12 -29 -28 -29h-79v-457c0 -104 -85 -188 -189 -188h-188
c-105 0 -189 84 -189 188v457h-71c-16 0 -29 13 -29 29c0 15 13 28 29 28zM458 881l84 -59c29 -24 -1 -60 -30 -43l-79 48l-81 -51c-32 -20 -63 21 -30 44l88 61c15 12 34 10 48 0z" />
    <glyph glyph-name="uacute" unicode="&#xfa;" horiz-adv-x="861" 
d="M73 702h206c16 0 28 -13 28 -28c0 -16 -12 -29 -28 -29h-78v-457c0 -72 59 -131 132 -131h188c73 0 132 59 132 131v457h-70c-16 0 -29 13 -29 29c0 15 13 28 29 28h206c16 0 28 -13 28 -28c0 -16 -12 -29 -28 -29h-79v-457c0 -104 -85 -188 -189 -188h-188
c-105 0 -189 84 -189 188v457h-71c-16 0 -29 13 -29 29c0 15 13 28 29 28zM411 815l70 75c31 33 75 -12 43 -43l-72 -69c-28 -27 -66 9 -41 37z" />
    <glyph glyph-name="ugrave" unicode="&#xf9;" horiz-adv-x="861" 
d="M279 702h-206c-16 0 -29 -13 -29 -28c0 -16 13 -29 29 -29h71v-457c0 -104 84 -188 189 -188h188c104 0 189 84 189 188v457h79c16 0 28 13 28 29c0 15 -12 28 -28 28h-206c-16 0 -29 -13 -29 -28c0 -16 13 -29 29 -29h70v-457c0 -72 -59 -131 -132 -131h-188
c-73 0 -132 59 -132 131v457h78c16 0 28 13 28 29c0 15 -12 28 -28 28zM385 889l70 -75c25 -28 -13 -64 -41 -37l-72 69c-32 31 12 76 43 43z" />
  </font>
</defs>
</svg>
